# xmcd
#
# Track frame offsets:
#	150
#	17175
#	39825
#	59475
#	83775
#	103200
#	121575
#	135450
#	155625
#	173775
#	193800
#	211575
#	229875
#	249975
#	267300
#	286350
#
# Disc length: 4065 seconds
#
# Revision: 3
# Processed by: cddbd v1.5.2PL0 Copyright (c) Steve Scherf et al.
# Submitted via: audiograbber 1.83.01
#
DISCID=da0fdf10
DTITLE=Various Artist - PTSYB1086
DYEAR=1900
DGENRE=
TTITLE0=Taylor Swift - Our Song
TTITLE1=Kenny Chesney - Don't Blink
TTITLE2=Carrie Underwood - Last Name
TTITLE3=Alan Jackson - Good Time
TTITLE4=Taylor Swift - Should've Said No
TTITLE5=Trace Adkins - You're Gonnna Miss This
TTITLE6=Miranda Lambert - Gunpowder And Lead
TTITLE7=Brad Paisley - I'm Still A Guy
TTITLE8=Carrie Underwood - All-American Girl
TTITLE9=James Otto - Just Got Started Lovin' You
TTITLE10=Taylor Swift - Teardrops On My Guitar
TTITLE11=Toby Keith - She Never Cried In Front Of Me
TTITLE12=Leann Rimes - Nothin' Better To Do
TTITLE13=Kenny Chesney - Never Wanted Nothing More
TTITLE14=Carrie Underwood - So Small
TTITLE15=Rodney Atkins - Cleaning This Gun (Come On In Boy)
EXTD=
EXTT0=
EXTT1=
EXTT2=
EXTT3=
EXTT4=
EXTT5=
EXTT6=
EXTT7=
EXTT8=
EXTT9=
EXTT10=
EXTT11=
EXTT12=
EXTT13=
EXTT14=
EXTT15=
PLAYORDER=
